####
#
# OBJ File Generated by Meshlab
#
####
# Object carpet.obj
#
# Vertices: 24
# Faces: 34
#
####
mtllib ./carpet.mtl

vn 2.133503 -2.133503 3.706217
v 22.185629 -22.185631 1.354754 0.749020 0.749020 0.749020
vn 2.133502 2.133502 3.706217
v 22.185629 22.185631 1.354756 0.749020 0.749020 0.749020
vn -2.133502 2.133502 3.706217
v -22.185629 22.185631 1.354756 0.749020 0.749020 0.749020
vn -2.133503 -2.133503 3.706217
v -22.185629 -22.185631 1.354754 0.749020 0.749020 0.749020
vn -2.328125 1.376172 2.073882
v -26.004105 20.084265 1.354756 0.749020 0.749020 0.749020
vn -2.328123 -1.376173 2.073881
v -26.004105 -20.084265 1.354754 0.749020 0.749020 0.749020
vn 1.376173 2.328126 2.073882
v 20.084263 26.004107 1.354756 0.749020 0.749020 0.749020
vn -1.376173 2.328122 2.073881
v -20.084263 26.004107 1.354756 0.749020 0.749020 0.749020
vn 2.328126 -1.376173 2.073882
v 26.004105 -20.084265 1.354754 0.749020 0.749020 0.749020
vn 2.328123 1.376173 2.073881
v 26.004105 20.084265 1.354756 0.749020 0.749020 0.749020
vn -1.376173 -2.328126 2.073882
v -20.084263 -26.004107 1.354754 0.749020 0.749020 0.749020
vn 1.376173 -2.328123 2.073881
v 20.084263 -26.004107 1.354754 0.749020 0.749020 0.749020
vn 2.133503 -2.133503 0.000000
v 22.185629 -22.185631 0.959159 0.749020 0.749020 0.749020
vn 1.376173 -2.328126 0.000000
v 20.084263 -26.004107 0.959159 0.749020 0.749020 0.749020
vn 2.328123 -1.376173 0.000000
v 26.004105 -20.084265 0.959159 0.749020 0.749020 0.749020
vn -1.376173 -2.328123 0.000000
v -20.084263 -26.004107 0.959159 0.749020 0.749020 0.749020
vn 2.328126 1.376173 0.000000
v 26.004105 20.084265 0.959161 0.749020 0.749020 0.749020
vn -1.376173 2.328126 0.000000
v -20.084263 26.004107 0.959161 0.749020 0.749020 0.749020
vn 1.376173 2.328123 0.000000
v 20.084263 26.004107 0.959161 0.749020 0.749020 0.749020
vn -2.328126 -1.376173 0.000000
v -26.004105 -20.084265 0.959159 0.749020 0.749020 0.749020
vn -2.328123 1.376173 0.000000
v -26.004105 20.084265 0.959161 0.749020 0.749020 0.749020
vn -2.133502 2.133502 0.000000
v -22.185629 22.185631 0.959161 0.749020 0.749020 0.749020
vn 2.133503 2.133503 0.000000
v 22.185629 22.185631 0.959161 0.749020 0.749020 0.749020
vn -2.133503 -2.133503 0.000000
v -22.185629 -22.185631 0.959159 0.749020 0.749020 0.749020
# 24 vertices, 0 vertices normals


usemtl material_0
vt 0.877100 0.116100
vt 0.877100 0.883900
vt 0.122900 0.883900
f 1/1/1 2/2/2 3/3/3
vt 0.122900 0.116100
f 1/1/1 3/3/3 4/4/4
vt 0.058000 0.847600
vt 0.058000 0.152400
f 3/3/3 5/5/5 6/6/6
f 3/3/3 6/6/6 4/4/4
vt 0.841400 0.950000
vt 0.158600 0.950000
f 2/2/2 7/7/7 8/8/8
f 2/2/2 8/8/8 3/3/3
vt 0.942000 0.152400
vt 0.942000 0.847600
f 1/1/1 9/9/9 10/10/10
f 1/1/1 10/10/10 2/2/2
vt 0.158600 0.050000
vt 0.841400 0.050000
f 4/4/4 11/11/11 12/12/12
f 4/4/4 12/12/12 1/1/1
vt 0.162000 0.054500
vt 0.838000 0.054500
vt 0.817500 0.084300
f 16/13/16 14/14/14 12/15/12
vt 0.188100 0.084300
f 16/13/16 12/15/12 11/16/11
vt 0.873400 0.119900
vt 0.852900 0.155300
f 14/14/14 13/17/13 1/18/1
f 14/14/14 1/18/1 12/15/12
vt 0.937600 0.155900
vt 0.911500 0.174500
f 13/17/13 15/19/15 9/20/9
f 13/17/13 9/20/9 1/18/1
vt 0.937600 0.844100
vt 0.911500 0.810600
f 15/19/15 17/21/17 10/22/10
f 15/19/15 10/22/10 9/20/9
vt 0.873400 0.880100
vt 0.849100 0.848400
f 17/21/17 23/23/23 2/24/2
f 17/21/17 2/24/2 10/22/10
vt 0.838000 0.945500
vt 0.821200 0.910100
f 23/23/23 19/25/19 7/26/7
f 23/23/23 7/26/7 2/24/2
vt 0.162000 0.945500
vt 0.175000 0.910100
f 19/25/19 18/27/18 8/28/8
f 19/25/19 8/28/8 7/26/7
vt 0.113500 0.885700
vt 0.145200 0.855900
f 18/27/18 22/29/22 3/30/3
f 18/27/18 3/30/3 8/28/8
vt 0.049300 0.849700
vt 0.089400 0.829200
f 22/29/22 21/31/21 5/32/5
f 22/29/22 5/32/5 3/30/3
vt 0.053000 0.155900
vt 0.089400 0.187600
f 21/31/21 20/33/20 6/34/6
f 21/31/21 6/34/6 5/32/5
vt 0.126600 0.119900
vt 0.156400 0.144100
f 20/33/20 24/35/24 4/36/4
f 20/33/20 4/36/4 6/34/6
f 24/35/24 16/13/16 11/16/11
f 24/35/24 11/16/11 4/36/4
# 34 faces, 36 coords texture

# End of File